<svg width="38" height="41" viewBox="0 0 38 41" fill="none" xmlns="http://www.w3.org/2000/svg">
<path d="M33.559 26.2679C32.9278 19.2822 29.4444 15.7778 29.4444 15.7778L23.1111 7.33333H14.6667L8.33333 15.7778C8.33333 15.7778 6.8355 17.2904 5.62372 20.2903C3.52422 20.9869 2 22.9439 2 25.2778C2 26.8062 2.65972 28.1721 3.69839 29.1358C3.3015 29.8768 3.05556 30.7107 3.05556 31.6111C3.05556 33.6779 4.25467 35.4491 5.98472 36.3147C7.339 38.3434 9.14822 39 10.4444 39H27.3333C28.7889 39 30.8937 38.1777 32.2712 35.5061C34.3095 34.7767 35.7778 32.8461 35.7778 30.5556C35.7778 28.7843 34.8974 27.2263 33.559 26.2679ZM18.8889 7.33333C19.4694 7.33333 20.0057 7.16656 20.4722 6.89422C20.9398 7.16656 21.4761 7.33333 22.0556 7.33333C23.8046 7.33333 26.2778 4.85911 26.2778 3.11111C26.2778 3.11111 26.2778 1 24.1667 1C23.3349 1 23.1111 2.05556 22.0556 2.05556C21 2.05556 21 1 18.8889 1C16.7778 1 16.7778 2.05556 15.7222 2.05556C14.6667 2.05556 14.4439 1 13.6111 1C11.5 1 11.5 3.11111 11.5 3.11111C11.5 4.85911 13.9742 7.33333 15.7222 7.33333C16.3017 7.33333 16.8379 7.16656 17.3056 6.89422C17.7732 7.16656 18.3094 7.33333 18.8889 7.33333Z" fill="url(#paint0_linear_39_403)"/>
<path d="M25.2214 7.33339C25.2214 7.91605 24.7495 8.38894 24.1658 8.38894H13.6102C13.0276 8.38894 12.5547 7.91605 12.5547 7.33339C12.5547 6.75072 13.0276 6.27783 13.6102 6.27783H24.1658C24.7495 6.27783 25.2214 6.75072 25.2214 7.33339Z" fill="#BF6952"/>
<path d="M25.1179 26.9054C25.1179 22.1797 16.0602 22.4879 16.0602 19.6369C16.0602 18.2562 17.4335 17.5817 19.0274 17.5817C21.7064 17.5817 22.1835 19.2379 23.3963 19.2379C24.2545 19.2379 24.6682 18.7175 24.6682 18.1338C24.6682 16.7784 22.5318 15.7524 20.483 15.3978V14.0889C20.483 13.2729 19.7969 12.6111 18.9482 12.6111C18.0985 12.6111 17.4113 13.2729 17.4113 14.0889V15.4431C15.1777 15.9319 13.2556 17.4223 13.2556 19.8511C13.2556 24.389 22.3112 24.2053 22.3112 27.3931C22.3112 28.4982 21.0677 29.6024 19.0274 29.6024C15.9652 29.6024 14.9455 27.6084 13.7021 27.6084C13.0962 27.6084 12.5547 28.0982 12.5547 28.8371C12.5547 30.0119 14.6004 31.4242 17.4134 31.818L17.4124 31.8285V33.3042C17.4124 34.1191 18.1006 34.782 18.9492 34.782C19.7979 34.782 20.4851 34.1191 20.4851 33.3042V31.8285C20.4851 31.8106 20.4766 31.7969 20.4756 31.781C23.0068 31.3271 25.1179 29.7417 25.1179 26.9054V26.9054Z" fill="#67757F"/>
<defs>
<linearGradient id="paint0_linear_39_403" x1="18.8889" y1="1" x2="18.8889" y2="39" gradientUnits="userSpaceOnUse">
<stop stop-color="#FFCC4D"/>
<stop offset="1" stop-color="#F7C377"/>
</linearGradient>
</defs>
</svg>
