<svg width="40" height="41" viewBox="0 0 40 41" fill="none" xmlns="http://www.w3.org/2000/svg">
<path d="M29.2872 36.529C28.8832 36.529 28.4812 36.405 28.1352 36.158L20.0002 30.324L11.8652 36.158C11.1722 36.654 10.2422 36.654 9.55324 36.15C8.86424 35.651 8.57424 34.765 8.83224 33.956L11.8662 24.164L3.80424 18.483C3.11924 17.978 2.83424 17.09 3.09624 16.28C3.36024 15.472 4.11224 14.923 4.96224 14.917L14.9472 14.902L18.1262 5.353C18.3942 4.544 19.1492 4 20.0002 4C20.8512 4 21.6062 4.545 21.8752 5.353L25.0002 14.902L35.0362 14.917C35.8892 14.923 36.6422 15.473 36.9032 16.28C37.1662 17.09 36.8812 17.978 36.1952 18.483L28.1332 24.164L31.1672 33.956C31.4272 34.765 31.1342 35.651 30.4472 36.15C30.1002 36.404 29.6942 36.529 29.2872 36.529V36.529Z" fill="#FFAC33"/>
</svg>
